<svg width="2359" height="504" viewBox="0 0 2359 504" fill="none" xmlns="http://www.w3.org/2000/svg">
<path fill-rule="evenodd" clip-rule="evenodd" d="M0 253.552V250.786C1.38431 183.021 27.6863 122.17 73.3685 77.9148C116.282 35.0426 175.807 7.38297 240.87 6H245.023H364.074H488.662V133.234V252.17V260.467C487.278 325.467 460.976 383.552 418.062 426.424C373.764 470.679 312.854 498.339 245.023 498.339C177.192 498.339 116.282 470.679 71.9841 426.424C27.6862 382.169 0 321.318 0 253.552ZM400.194 178.006C406.149 175.041 412.103 172.076 418.044 169.124C418.044 168.962 418.044 168.745 418.099 168.583C416.283 165.699 414.53 162.763 412.778 159.826L412.776 159.824C409.163 153.769 405.546 147.71 401.361 142.092C370.939 101.3 330.43 76.5437 280.162 67.7677C275.366 66.9181 270.494 66.396 265.632 65.8749C263.364 65.6319 261.099 65.389 258.844 65.1133H237.581C235.546 65.3512 233.51 65.5687 231.477 65.786L231.477 65.786C226.103 66.3603 220.746 66.9328 215.445 67.8761C178.371 74.3768 145.986 90.466 118.508 116.035C89.6117 142.905 70.8021 175.679 62.4604 214.196C61.1961 220.134 60.4433 226.18 59.6913 232.22C59.3731 234.775 59.0551 237.329 58.6985 239.874C58.6167 240.442 58.535 241.025 58.4532 241.607C58.3714 242.189 58.2896 242.772 58.2078 243.341V264.468C58.498 266.774 58.7469 269.087 58.9961 271.402C59.4493 275.613 59.9032 279.83 60.6067 284.024C67.2583 323.949 85.0865 358.24 113.546 387.06C115.535 389.078 117.622 390.998 119.96 393.149C120.635 393.77 121.331 394.41 122.052 395.078V391.069C122.052 383.496 122.05 375.922 122.049 368.349L122.049 368.235V368.231C122.041 330.176 122.033 292.121 122.215 254.067C122.27 246.158 122.978 238.14 124.45 230.393C135.246 173.35 184.696 130.716 243.142 129.091C292.047 127.737 329.503 148.81 355.836 189.602C356.969 191.381 357.979 193.208 358.999 195.052C359.5 195.959 360.004 196.871 360.525 197.782C364.26 195.926 367.94 194.084 371.592 192.256L371.592 192.256L371.593 192.256C375.191 190.455 378.762 188.667 382.333 186.893C388.278 183.94 394.236 180.973 400.194 178.006ZM232.214 442.097H232.214C227.876 441.62 223.527 441.142 219.205 440.529C205.411 438.524 192.054 434.841 179.078 429.803C177.715 429.261 177.115 428.665 177.115 427.094C177.169 404.45 177.169 381.752 177.169 359.108C177.169 358.674 177.224 358.241 177.333 357.482C209.173 377.905 243.358 384.244 279.832 374.764C316.252 365.283 342.749 342.964 360.577 309.919C363.571 311.406 366.55 312.88 369.53 314.354L369.551 314.364C372.534 315.839 375.517 317.314 378.514 318.803C391.163 325.087 403.812 331.426 416.406 337.764C416.769 337.944 417.133 338.173 417.496 338.401L417.496 338.402C417.678 338.516 417.86 338.63 418.042 338.739V339.281C417.96 339.394 417.879 339.503 417.799 339.609C417.611 339.859 417.431 340.098 417.279 340.364C407.628 358.837 395.416 375.468 380.314 389.878C352.399 416.53 319.305 433.216 281.195 439.933C276.153 440.817 271.06 441.376 265.985 441.932L265.982 441.932C263.595 442.194 261.213 442.455 258.841 442.75C251.754 442.696 244.666 442.696 237.578 442.696C235.794 442.49 234.005 442.293 232.214 442.097ZM250.291 323.637C289.786 323.637 321.803 291.639 321.803 252.168C321.803 212.697 289.786 180.7 250.291 180.7C210.797 180.7 178.78 212.697 178.78 252.168C178.78 291.639 210.797 323.637 250.291 323.637Z" fill="#FE7167"/>
<path d="M733.6 190V50H860.6V190H817.8V87H776.6V190H733.6ZM887.842 190V50H997.642V87H930.842V99.4H983.242V133.4H930.842V153H998.842V190H887.842ZM1020.99 50H1085.39C1101.52 50 1114.39 54.2667 1123.99 62.8C1133.59 71.3333 1138.39 82.2667 1138.39 95.6C1138.39 108.8 1133.52 119.733 1123.79 128.4C1114.19 136.933 1101.39 141.2 1085.39 141.2H1063.99V190H1020.99V50ZM1063.99 110H1079.59C1083.99 110 1087.52 108.867 1090.19 106.6C1092.99 104.333 1094.39 101.267 1094.39 97.4C1094.39 93.6667 1092.99 90.6667 1090.19 88.4C1087.39 86.1333 1083.86 85 1079.59 85H1063.99V110ZM1219.06 196.6V180.8C1198.66 179.6 1182.6 173 1170.86 161C1159.13 148.867 1153.26 134.533 1153.26 118C1153.26 101.467 1159.13 87.2 1170.86 75.2C1182.6 63.2 1198.66 56.6 1219.06 55.4V43.2H1262.06V55.4C1282.6 56.6 1298.66 63.2 1310.26 75.2C1321.86 87.2 1327.66 101.467 1327.66 118C1327.66 134.533 1321.86 148.867 1310.26 161C1298.66 173 1282.6 179.6 1262.06 180.8V196.6H1219.06ZM1262.06 91.8V144.4C1267.93 143.867 1273 141.467 1277.26 137.2C1281.66 132.8 1283.86 126.4 1283.86 118C1283.86 109.6 1281.66 103.267 1277.26 99C1272.86 94.6 1267.8 92.2 1262.06 91.8ZM1219.06 144.4V91.8C1213.33 92.2 1208.26 94.6 1203.86 99C1199.46 103.267 1197.26 109.6 1197.26 118C1197.26 126.4 1199.4 132.8 1203.66 137.2C1208.06 141.467 1213.2 143.867 1219.06 144.4ZM1399.75 144.2C1405.62 150.467 1413.09 153.6 1422.15 153.6C1431.22 153.6 1438.62 150.467 1444.35 144.2C1450.22 137.8 1453.15 129.733 1453.15 120C1453.15 110.267 1450.22 102.267 1444.35 96C1438.62 89.6 1431.22 86.4 1422.15 86.4C1413.09 86.4 1405.62 89.6 1399.75 96C1394.02 102.267 1391.15 110.267 1391.15 120C1391.15 129.733 1394.02 137.8 1399.75 144.2ZM1475.75 171.6C1461.62 185.733 1443.75 192.8 1422.15 192.8C1400.55 192.8 1382.62 185.667 1368.35 171.4C1354.22 157.133 1347.15 140 1347.15 120C1347.15 99.8667 1354.22 82.7333 1368.35 68.6C1382.62 54.3333 1400.55 47.2 1422.15 47.2C1443.75 47.2 1461.62 54.3333 1475.75 68.6C1489.89 82.7333 1496.95 99.8667 1496.95 120C1496.95 140.133 1489.89 157.333 1475.75 171.6ZM1520.44 190V50H1563.04L1593.64 99.8L1624.44 50H1666.84V190H1625.64V111.6L1605.84 145H1582.64L1562.04 111.6V190H1520.44ZM1683.61 190L1741.21 49.2H1782.21L1840.01 190H1793.81L1783.81 163.8H1738.21L1728.01 190H1683.61ZM1750.61 131.6H1771.21L1761.01 98.4L1750.61 131.6ZM1856.65 190V50H1899.65V97.4H1942.45V50H1985.45V190H1942.45V134.8H1899.65V190H1856.65ZM2088.85 192.8C2065.79 192.8 2046.65 186.067 2031.45 172.6C2016.25 159 2008.65 141.467 2008.65 120C2008.65 98.5333 2016.19 81.0667 2031.25 67.6C2046.32 54 2065.39 47.2 2088.45 47.2C2102.19 47.2 2113.99 49.6667 2123.85 54.6V95.2C2112.39 89.0667 2100.99 86 2089.65 86C2078.99 86 2070.19 89.2667 2063.25 95.8C2056.32 102.2 2052.85 110.267 2052.85 120C2052.85 130 2056.45 138.2 2063.65 144.6C2070.85 150.867 2080.05 154 2091.25 154C2104.99 154 2116.52 150.667 2125.85 144V185.2C2116.25 190.267 2103.92 192.8 2088.85 192.8ZM733.6 442V302H776.6V354.2L816 302H866.6L817 367L876.6 442H823.8L776.6 381.6V442H733.6ZM925.7 396.2C931.567 402.467 939.033 405.6 948.1 405.6C957.167 405.6 964.567 402.467 970.3 396.2C976.167 389.8 979.1 381.733 979.1 372C979.1 362.267 976.167 354.267 970.3 348C964.567 341.6 957.167 338.4 948.1 338.4C939.033 338.4 931.567 341.6 925.7 348C919.967 354.267 917.1 362.267 917.1 372C917.1 381.733 919.967 389.8 925.7 396.2ZM1001.7 423.6C987.567 437.733 969.7 444.8 948.1 444.8C926.5 444.8 908.567 437.667 894.3 423.4C880.167 409.133 873.1 392 873.1 372C873.1 351.867 880.167 334.733 894.3 320.6C908.567 306.333 926.5 299.2 948.1 299.2C969.7 299.2 987.567 306.333 1001.7 320.6C1015.83 334.733 1022.9 351.867 1022.9 372C1022.9 392.133 1015.83 409.333 1001.7 423.6ZM1046.38 442V302H1089.38V349.4H1132.18V302H1175.18V442H1132.18V386.8H1089.38V442H1046.38ZM1264.18 448.6V432.8C1243.78 431.6 1227.71 425 1215.98 413C1204.25 400.867 1198.38 386.533 1198.38 370C1198.38 353.467 1204.25 339.2 1215.98 327.2C1227.71 315.2 1243.78 308.6 1264.18 307.4V295.2H1307.18V307.4C1327.71 308.6 1343.78 315.2 1355.38 327.2C1366.98 339.2 1372.78 353.467 1372.78 370C1372.78 386.533 1366.98 400.867 1355.38 413C1343.78 425 1327.71 431.6 1307.18 432.8V448.6H1264.18ZM1307.18 343.8V396.4C1313.05 395.867 1318.11 393.467 1322.38 389.2C1326.78 384.8 1328.98 378.4 1328.98 370C1328.98 361.6 1326.78 355.267 1322.38 351C1317.98 346.6 1312.91 344.2 1307.18 343.8ZM1264.18 396.4V343.8C1258.45 344.2 1253.38 346.6 1248.98 351C1244.58 355.267 1242.38 361.6 1242.38 370C1242.38 378.4 1244.51 384.8 1248.78 389.2C1253.18 393.467 1258.31 395.867 1264.18 396.4ZM1467.48 442L1472.28 413.4H1445.48L1450.48 383.4H1476.88L1480.48 360.6H1454.08L1458.68 330.6H1485.48L1489.68 302H1522.28L1517.88 330.6H1538.08L1542.48 302H1575.08L1570.68 330.6H1597.08L1592.08 360.6H1565.88L1562.08 383.4H1588.68L1583.68 413.4H1557.48L1552.88 442H1520.28L1524.88 413.4H1504.68L1500.08 442H1467.48ZM1509.28 383.4H1529.48L1533.28 360.6H1513.08L1509.28 383.4ZM1705.44 367.6C1711.58 370.133 1716.84 374.533 1721.24 380.8C1725.78 386.933 1728.04 393.533 1728.04 400.6C1728.04 414.733 1722.38 425.667 1711.04 433.4C1699.84 441 1686.11 444.8 1669.84 444.8C1653.58 444.8 1639.78 441 1628.44 433.4C1617.24 425.667 1611.64 414.733 1611.64 400.6C1611.64 393.533 1613.84 386.933 1618.24 380.8C1622.78 374.533 1628.11 370.133 1634.24 367.6C1629.44 365.2 1625.44 361.4 1622.24 356.2C1619.04 351 1617.44 345.6 1617.44 340C1617.44 327.867 1622.38 318.067 1632.24 310.6C1642.24 303 1654.78 299.2 1669.84 299.2C1684.91 299.2 1697.38 303 1707.24 310.6C1717.24 318.067 1722.24 327.867 1722.24 340C1722.24 345.6 1720.64 351 1717.44 356.2C1714.24 361.4 1710.24 365.2 1705.44 367.6ZM1679.24 336.6C1676.71 334.467 1673.58 333.4 1669.84 333.4C1666.11 333.4 1662.98 334.467 1660.44 336.6C1657.91 338.733 1656.64 341.4 1656.64 344.6C1656.64 347.8 1657.91 350.467 1660.44 352.6C1662.98 354.6 1666.11 355.6 1669.84 355.6C1673.58 355.6 1676.71 354.6 1679.24 352.6C1681.78 350.467 1683.04 347.8 1683.04 344.6C1683.04 341.4 1681.78 338.733 1679.24 336.6ZM1658.24 406.2C1661.31 408.733 1665.18 410 1669.84 410C1674.51 410 1678.38 408.733 1681.44 406.2C1684.51 403.667 1686.04 400.533 1686.04 396.8C1686.04 392.933 1684.51 389.733 1681.44 387.2C1678.51 384.533 1674.64 383.2 1669.84 383.2C1665.04 383.2 1661.11 384.533 1658.04 387.2C1655.11 389.733 1653.64 392.933 1653.64 396.8C1653.64 400.533 1655.18 403.667 1658.24 406.2Z" fill="#312D2C"/>
</svg>
